<svg xmlns="http://www.w3.org/2000/svg" viewBox="0 0 15 16">
            <path d="M4.837 0a2.5 2.5 0 012.458 2.042A2.5 2.5 0 019.337 4.5a.5.5 0 01-.5.5h-4a.5.5 0 01-.5-.5c0-1.187.827-2.18 1.936-2.436a1.5 1.5 0 00-2.936.436V10h10.5a.5.5 0 01.485.621l-.432 1.728a3.493 3.493 0 01-1.11 1.803l.508 1.529-.948.316-.431-1.295a3.492 3.492 0 01-1.414.298H4.18c-.498 0-.976-.105-1.41-.296l-.432 1.297-.949-.317.51-1.529A3.493 3.493 0 01.784 12.35L.352 10.62A.5.5 0 01.837 10h1.5V2.5a2.5 2.5 0 012.5-2.5zm8.36 11H1.477l.277 1.106A2.5 2.5 0 004.18 14h6.315c.39 0 .763-.09 1.096-.253l-.007-.02.128-.043a2.499 2.499 0 001.208-1.578L13.197 11zm-4.36-3a.5.5 0 110 1 .5.5 0 010-1zm-2 0a.5.5 0 110 1 .5.5 0 010-1zm-2 0a.5.5 0 110 1 .5.5 0 010-1zm3-1a.5.5 0 110 1 .5.5 0 010-1zm-2 0a.5.5 0 110 1 .5.5 0 010-1zm1-1a.5.5 0 110 1 .5.5 0 010-1zm0-3a1.5 1.5 0 00-1.414 1h2.829a1.5 1.5 0 00-1.415-1z"></path>
        </svg>